<?xml version="1.0" encoding="UTF-8" standalone="no"?>
<!-- Created with Inkscape (http://www.inkscape.org/) -->

<svg
   width="51.225368mm"
   height="51.44545mm"
   viewBox="0 0 51.225368 51.44545"
   version="1.1"
   id="svg1"
   xml:space="preserve"
   sodipodi:docname="GE_icon_color.svg"
   inkscape:version="1.4.3 (0d15f75042, 2025-12-25)"
   xmlns:inkscape="http://www.inkscape.org/namespaces/inkscape"
   xmlns:sodipodi="http://sodipodi.sourceforge.net/DTD/sodipodi-0.dtd"
   xmlns:xlink="http://www.w3.org/1999/xlink"
   xmlns="http://www.w3.org/2000/svg"
   xmlns:svg="http://www.w3.org/2000/svg"><sodipodi:namedview
     id="namedview1"
     pagecolor="#ffffff"
     bordercolor="#000000"
     borderopacity="0.25"
     inkscape:showpageshadow="2"
     inkscape:pageopacity="0.0"
     inkscape:pagecheckerboard="0"
     inkscape:deskcolor="#d1d1d1"
     inkscape:document-units="mm"
     inkscape:zoom="4.1143904"
     inkscape:cx="96.855174"
     inkscape:cy="97.219748"
     inkscape:window-width="1920"
     inkscape:window-height="1011"
     inkscape:window-x="0"
     inkscape:window-y="0"
     inkscape:window-maximized="1"
     inkscape:current-layer="svg1" /><defs
     id="defs1"><linearGradient
       id="linearGradient37"><stop
         style="stop-color:#ff9e00;stop-opacity:1;"
         offset="0"
         id="stop37" /><stop
         style="stop-color:#bb00ff;stop-opacity:1;"
         offset="1"
         id="stop38" /></linearGradient><linearGradient
       xlink:href="#linearGradient37"
       id="linearGradient38"
       x1="41.854961"
       y1="83.410446"
       x2="94.518501"
       y2="29.715996"
       gradientUnits="userSpaceOnUse"
       gradientTransform="translate(-2.8063301,-11.973675)" /></defs><g
     id="layer1"
     transform="translate(-90.332401,-72.026361)"><path
       d="m 103.85435,72.026365 a 6.4039697,6.4039697 0 0 0 -6.090586,4.425053 l -7.023866,21.618318 a 8.3236312,8.3236312 0 0 0 3.023588,9.306414 l 22.154214,16.09566 22.33817,-16.23002 a 8.0094949,8.0094949 0 0 0 2.9099,-8.955014 l -6.9882,-21.507213 a 6.8789437,6.8789437 0 0 0 -6.54224,-4.753198 z m 14.46889,3.620967 c 0.18298,-0.216936 -0.19596,3.394475 -0.84336,8.035174 -0.64677,4.63608 -1.16604,8.48831 -1.15394,8.56071 0.0121,0.0724 3.13961,-0.40694 6.94997,-1.06556 l 6.92774,-1.19735 -4.27933,6.6983 c -2.35359,3.684254 -4.57588,7.168954 -4.93871,7.743724 -0.8059,1.27666 -7.37795,11.59309 -7.66517,12.03234 -0.11328,0.17325 -0.21729,0.23387 -0.23099,0.13436 -0.0133,-0.0996 0.49917,-3.9436 1.13946,-8.54212 l 1.16376,-8.360734 -6.93395,1.198384 c -6.16179,1.06507 -6.91988,1.16384 -6.8063,0.8847 0.0702,-0.17276 2.93232,-4.709074 6.36034,-10.080524 3.42804,-5.37145 7.07551,-11.089419 8.10544,-12.706724 1.02995,-1.617309 2.02223,-3.117958 2.20504,-3.33468 z"
       style="fill:url(#linearGradient38);stroke-linejoin:round"
       id="path40" /></g><path
     style="fill:#ffffff;stroke-width:0.243049;fill-opacity:1"
     d="m 86.161001,168.11949 c 0,-0.77895 3.835545,-28.96688 7.266192,-53.40019 0.778932,-5.5476 1.37565,-10.13318 1.326041,-10.19016 -0.04961,-0.057 -4.053886,0.5826 -8.898392,1.4213 -32.370396,5.60416 -39.854522,6.82151 -41.949672,6.82348 -0.860588,8e-4 -1.031659,-0.0702 -0.913205,-0.37886 0.322335,-0.83998 9.804562,-15.822193 37.29308,-58.924199 20.253835,-31.758026 25.182075,-39.373998 25.478615,-39.373998 0.54764,0 -1.00699,13.350776 -4.65565,39.981622 -2.817088,20.561388 -3.043855,22.313769 -2.905431,22.452191 0.2751,0.2751 16.833241,-2.364013 39.350081,-6.271799 6.94391,-1.205112 12.65501,-2.16138 12.69135,-2.125042 0.0363,0.03634 -1.22214,2.083932 -2.79663,4.550205 -1.57448,2.466273 -6.5655,10.280862 -11.09115,17.365751 -4.52565,7.084889 -16.72654,26.225029 -27.11309,42.533639 -22.57401,35.44497 -22.560496,35.42384 -22.85191,35.71611 -0.145203,0.14562 -0.230229,0.0791 -0.230229,-0.18005 z"
     id="path1"
     transform="scale(0.26458333)" /></svg>
